<svg width="1200" height="900" viewBox="0 0 1200 900" fill="none" xmlns="http://www.w3.org/2000/svg">
  <defs>
    <linearGradient id="hpBg" x1="0" y1="0" x2="1200" y2="900" gradientUnits="userSpaceOnUse">
      <stop stop-color="#FFFFFF"/>
      <stop offset="1" stop-color="#F8FAFC"/>
    </linearGradient>
    <linearGradient id="hpTealWash" x1="0" y1="900" x2="1200" y2="0" gradientUnits="userSpaceOnUse">
      <stop stop-color="#0D9488" stop-opacity="0.10"/>
      <stop offset="1" stop-color="#0D9488" stop-opacity="0"/>
    </linearGradient>
    <pattern id="hpDots" width="24" height="24" patternUnits="userSpaceOnUse">
      <circle cx="3" cy="3" r="1.35" fill="#0D9488" fill-opacity="0.10"/>
    </pattern>
  </defs>

  <rect width="1200" height="900" fill="url(#hpBg)"/>
  <rect width="1200" height="900" fill="url(#hpTealWash)"/>
  <rect width="1200" height="900" fill="url(#hpDots)"/>

  <!-- Abstract “message + confirmation” motif -->
  <g opacity="0.65">
    <rect x="160" y="190" width="720" height="190" rx="34" fill="#FFFFFF" fill-opacity="0.82" stroke="#0F172A" stroke-opacity="0.10"/>
    <rect x="220" y="250" width="520" height="14" rx="7" fill="#0F172A" fill-opacity="0.12"/>
    <rect x="220" y="280" width="430" height="12" rx="6" fill="#0F172A" fill-opacity="0.10"/>
    <rect x="220" y="306" width="360" height="12" rx="6" fill="#0F172A" fill-opacity="0.08"/>
    <circle cx="204" cy="254" r="18" fill="#0D9488" fill-opacity="0.16"/>
    <circle cx="204" cy="254" r="7" fill="#0D9488" fill-opacity="0.55"/>
  </g>

  <g opacity="0.70">
    <rect x="320" y="430" width="720" height="190" rx="34" fill="#FFFFFF" fill-opacity="0.86" stroke="#0F172A" stroke-opacity="0.10"/>
    <rect x="380" y="490" width="520" height="14" rx="7" fill="#0F172A" fill-opacity="0.12"/>
    <rect x="380" y="520" width="460" height="12" rx="6" fill="#0F172A" fill-opacity="0.10"/>
    <rect x="380" y="546" width="320" height="12" rx="6" fill="#0F172A" fill-opacity="0.08"/>
    <circle cx="1000" cy="526" r="26" fill="#0D9488" fill-opacity="0.14"/>
    <path d="M990 526L999 535L1012 514" stroke="#0D9488" stroke-opacity="0.70" stroke-width="5.5" stroke-linecap="round" stroke-linejoin="round"/>
  </g>

  <!-- Timeline line & dots -->
  <g opacity="0.55">
    <path d="M220 720H980" stroke="#0D9488" stroke-opacity="0.35" stroke-width="6" stroke-linecap="round"/>
    <circle cx="300" cy="720" r="12" fill="#0D9488" fill-opacity="0.55"/>
    <circle cx="540" cy="720" r="12" fill="#0D9488" fill-opacity="0.35"/>
    <circle cx="780" cy="720" r="12" fill="#0D9488" fill-opacity="0.35"/>
    <circle cx="980" cy="720" r="12" fill="#0D9488" fill-opacity="0.55"/>
  </g>
</svg>
